<?xml version="1.0" encoding="UTF-8" standalone="no"?>
<!DOCTYPE svg PUBLIC "-//W3C//DTD SVG 1.1//EN" "http://www.w3.org/Graphics/SVG/1.1/DTD/svg11.dtd">
<svg version="1.1" xmlns="http://www.w3.org/2000/svg" xmlns:xlink="http://www.w3.org/1999/xlink" preserveAspectRatio="xMidYMid meet" viewBox="292.25991241770845 244.2777418659772 57.480175164583045 124.30165912518856" width="53.48" height="120.3"><defs><path d="M345.79 293.18C339.46 265.19 326.43 257.71 323.08 252.52C321.17 249.62 319.38 245.28 319.38 245.28C319.26 247.69 318.9 249.38 316.75 251.19C312.57 254.93 294.76 269.65 293.32 301.39C291.89 330.95 314.84 349.29 317.95 351.22C320.34 352.43 323.08 351.22 324.52 350.13C335.51 342.53 350.69 322.02 345.79 293.18" id="b3C8taQC"></path><path d="M317.83 351.22C318.3 356.02 318.86 360.8 319.5 365.58C319.74 365.58 321.65 365.58 321.89 365.58C322.73 357.25 324.52 350.13 324.52 350.13C321.41 348.57 320.46 341.81 320.34 335.41C319.74 342.77 319.38 347 317.83 351.22Z" id="a3O25DF5d"></path><path d="M324.52 350.13C321.41 348.69 320.46 341.81 320.34 335.41C321.05 326.73 321.41 315.5 321.05 303.8C320.93 298.25 321.17 252.52 319.74 245.88C320.34 247.21 321.77 250.22 323.08 252.52C326.43 257.83 339.46 265.19 345.79 293.18C350.57 322.02 335.63 342.41 324.52 350.13C324.52 350.13 324.52 350.13 324.52 350.13Z" id="b3E6QRpISH"></path></defs><g><g><use xlink:href="#b3C8taQC" opacity="1" fill="#10aa50" fill-opacity="1"></use><g><use xlink:href="#b3C8taQC" opacity="1" fill-opacity="0" stroke="#000000" stroke-width="1" stroke-opacity="0"></use></g></g><g><use xlink:href="#a3O25DF5d" opacity="1" fill="#b8c4c2" fill-opacity="1"></use><g><use xlink:href="#a3O25DF5d" opacity="1" fill-opacity="0" stroke="#000000" stroke-width="1" stroke-opacity="0"></use></g></g><g><use xlink:href="#b3E6QRpISH" opacity="1" fill="#12924f" fill-opacity="1"></use><g><use xlink:href="#b3E6QRpISH" opacity="1" fill-opacity="0" stroke="#000000" stroke-width="1" stroke-opacity="0"></use></g></g></g></svg>