<?xml version="1.0" encoding="UTF-8" standalone="no"?>
<!DOCTYPE svg PUBLIC "-//W3C//DTD SVG 1.1//EN" "http://www.w3.org/Graphics/SVG/1.1/DTD/svg11.dtd">
<svg version="1.1" xmlns="http://www.w3.org/2000/svg" xmlns:xlink="http://www.w3.org/1999/xlink" preserveAspectRatio="xMidYMid meet" viewBox="-1 227.02376341615516 166.58903075458696 187.95247316768965" width="162.59" height="183.95"><defs><path d="M81.29 228.02L162.59 274.01L162.59 365.99L81.29 411.98L0 365.99L0 274.01L81.29 228.02Z" id="ek93JbE9y"></path><path d="M148.07 362.82L83.98 399.08L83.98 370.85L123.92 348.87L148.07 362.82ZM152.46 358.85L152.46 283.04L129.02 296.59L129.02 345.32L152.46 358.85ZM14.26 362.82L78.35 399.08L78.35 370.85L38.4 348.87L14.26 362.82ZM9.87 358.85L9.87 283.04L33.32 296.59L33.32 345.32L9.87 358.85ZM12.62 278.12L78.35 240.94L78.35 268.23L36.24 291.4L35.9 291.59L12.62 278.12ZM149.71 278.12L83.98 240.94L83.98 268.23L126.1 291.38L126.44 291.57L149.71 278.12Z" id="d1ijecpCHD"></path><path d="M78.35 364.42L38.95 342.74L38.95 299.82L78.35 322.57L78.35 364.42ZM83.98 364.42L123.39 342.76L123.39 299.82L83.98 322.57L83.98 364.42ZM41.61 294.87L81.17 273.12L120.72 294.87L81.17 317.7L41.61 294.87Z" id="abvAjFPEw"></path></defs><g><g><use xlink:href="#ek93JbE9y" opacity="1" fill="#ffffff" fill-opacity="1"></use><g><use xlink:href="#ek93JbE9y" opacity="1" fill-opacity="0" stroke="#000000" stroke-width="1" stroke-opacity="0"></use></g></g><g><use xlink:href="#d1ijecpCHD" opacity="1" fill="#8ed6fb" fill-opacity="1"></use><g><use xlink:href="#d1ijecpCHD" opacity="1" fill-opacity="0" stroke="#000000" stroke-width="1" stroke-opacity="0"></use></g></g><g><use xlink:href="#abvAjFPEw" opacity="1" fill="#1c78c0" fill-opacity="1"></use><g><use xlink:href="#abvAjFPEw" opacity="1" fill-opacity="0" stroke="#000000" stroke-width="1" stroke-opacity="0"></use></g></g></g></svg>